<svg xmlns="http://www.w3.org/2000/svg" viewBox="0 0 1024 1024" width="1024" height="1024" fill="none">
  <circle cx="512.0" cy="512.0" r="420" stroke="black" stroke-width="64" />
  <path d="M 320,650 L 320,340 L 512.0,510 L 704,340 L 704,650" stroke="black" stroke-width="64" stroke-linejoin="miter" stroke-linecap="square"/>
  <path d="M 180.000,760.000 L 182.850,762.060 L 185.700,764.110 L 188.550,766.141 L 191.400,768.143 L 194.250,770.107 L 197.100,772.022 L 199.950,773.881 L 202.800,775.675 L 205.650,777.394 L 208.500,779.032 L 211.350,780.579 L 214.200,782.030 L 217.050,783.376 L 219.900,784.612 L 222.750,785.732 L 225.600,786.730 L 228.450,787.602 L 231.300,788.344 L 234.150,788.952 L 237.000,789.424 L 239.850,789.756 L 242.700,789.948 L 245.550,789.999 L 248.400,789.908 L 251.250,789.675 L 254.100,789.303 L 256.950,788.792 L 259.800,788.146 L 262.650,787.366 L 265.500,786.458 L 268.350,785.424 L 271.200,784.271 L 274.050,783.002 L 276.900,781.626 L 279.750,780.147 L 282.600,778.573 L 285.450,776.911 L 288.300,775.170 L 291.150,773.357 L 294.000,771.481 L 296.850,769.550 L 299.700,767.575 L 302.550,765.564 L 305.400,763.526 L 308.250,761.472 L 311.100,759.411 L 313.950,757.353 L 316.800,755.307 L 319.650,753.283 L 322.500,751.291 L 325.350,749.341 L 328.200,747.440 L 331.050,745.599 L 333.900,743.826 L 336.750,742.129 L 339.600,740.517 L 342.450,738.996 L 345.300,737.575 L 348.150,736.259 L 351.000,735.056 L 353.850,733.970 L 356.700,733.008 L 359.550,732.172 L 362.400,731.468 L 365.250,730.899 L 368.100,730.467 L 370.950,730.175 L 373.800,730.023 L 376.650,730.013 L 379.500,730.144 L 382.350,730.417 L 385.200,730.829 L 388.050,731.379 L 390.900,732.064 L 393.750,732.880 L 396.600,733.825 L 399.450,734.893 L 402.300,736.080 L 405.150,737.380 L 408.000,738.787 L 410.850,740.294 L 413.700,741.893 L 416.550,743.579 L 419.400,745.341 L 422.250,747.173 L 425.100,749.066 L 427.950,751.010 L 430.800,752.997 L 433.650,755.016 L 436.500,757.059 L 439.350,759.117 L 442.200,761.178 L 445.050,763.233 L 447.900,765.274 L 450.750,767.289 L 453.600,769.271 L 456.450,771.208 L 459.300,773.092 L 462.150,774.915 L 465.000,776.667 L 467.850,778.341 L 470.700,779.928 L 473.550,781.420 L 476.400,782.812 L 479.250,784.096 L 482.100,785.267 L 484.950,786.318 L 487.800,787.244 L 490.650,788.042 L 493.500,788.708 L 496.350,789.238 L 499.200,789.631 L 502.050,789.883 L 504.900,789.994 L 507.750,789.964 L 510.600,789.792 L 513.450,789.480 L 516.300,789.028 L 519.150,788.439 L 522.000,787.716 L 524.850,786.863 L 527.700,785.882 L 530.550,784.779 L 533.400,783.560 L 536.250,782.229 L 539.100,780.793 L 541.950,779.259 L 544.800,777.634 L 547.650,775.925 L 550.500,774.142 L 553.350,772.292 L 556.200,770.384 L 559.050,768.426 L 561.900,766.429 L 564.750,764.402 L 567.600,762.354 L 570.450,760.295 L 573.300,758.234 L 576.150,756.182 L 579.000,754.147 L 581.850,752.141 L 584.700,750.171 L 587.550,748.248 L 590.400,746.380 L 593.250,744.577 L 596.100,742.846 L 598.950,741.197 L 601.800,739.636 L 604.650,738.171 L 607.500,736.810 L 610.350,735.558 L 613.200,734.421 L 616.050,733.405 L 618.900,732.514 L 621.750,731.754 L 624.600,731.126 L 627.450,730.635 L 630.300,730.283 L 633.150,730.071 L 636.000,730.000 L 638.850,730.071 L 641.700,730.283 L 644.550,730.635 L 647.400,731.126 L 650.250,731.754 L 653.100,732.514 L 655.950,733.405 L 658.800,734.421 L 661.650,735.558 L 664.500,736.810 L 667.350,738.171 L 670.200,739.636 L 673.050,741.197 L 675.900,742.846 L 678.750,744.577 L 681.600,746.380 L 684.450,748.248 L 687.300,750.171 L 690.150,752.141 L 693.000,754.147 L 695.850,756.182 L 698.700,758.234 L 701.550,760.295 L 704.400,762.354 L 707.250,764.402 L 710.100,766.429 L 712.950,768.426 L 715.800,770.384 L 718.650,772.292 L 721.500,774.142 L 724.350,775.925 L 727.200,777.634 L 730.050,779.259 L 732.900,780.793 L 735.750,782.229 L 738.600,783.560 L 741.450,784.779 L 744.300,785.882 L 747.150,786.863 L 750.000,787.716 L 752.850,788.439 L 755.700,789.028 L 758.550,789.480 L 761.400,789.792 L 764.250,789.964 L 767.100,789.994 L 769.950,789.883 L 772.800,789.631 L 775.650,789.238 L 778.500,788.708 L 781.350,788.042 L 784.200,787.244 L 787.050,786.318 L 789.900,785.267 L 792.750,784.096 L 795.600,782.812 L 798.450,781.420 L 801.300,779.928 L 804.150,778.341 L 807.000,776.667 L 809.850,774.915 L 812.700,773.092 L 815.550,771.208 L 818.400,769.271 L 821.250,767.289 L 824.100,765.274 L 826.950,763.233 L 829.800,761.178 L 832.650,759.117 L 835.500,757.059 L 838.350,755.016 L 841.200,752.997 L 844.050,751.010 L 846.900,749.066 L 849.750,747.173 L 852.600,745.341 L 855.450,743.579 L 858.300,741.893 L 861.150,740.294 L 864.000,738.787" stroke="black" stroke-width="64" fill="none" stroke-linecap="round" stroke-linejoin="round"/>
</svg>